<svg xmlns="http://www.w3.org/2000/svg" viewBox="0 0 200 200" width="100%" height="100%">
    <defs>
        <clipPath id="hexClip">
            <polygon points="100,10 177.9,55 177.9,145 100,190 22.1,145 22.1,55" />
        </clipPath>
    </defs>
    
    <g clip-path="url(#hexClip)">
        <rect x="0" y="0" width="200" height="200" fill="#FFC107" />
        
        <path d="M0,40 Q50,20 100,50 T200,30 L200,200 L0,200 Z" fill="#FF9800" />
        
        <path d="M0,70 Q60,90 120,60 T200,80 L200,200 L0,200 Z" fill="#F57C00" />
        
        <path d="M0,105 Q40,95 90,115 T200,95 L200,200 L0,200 Z" fill="#E65100" />
        
        <path d="M0,140 Q50,160 110,140 T200,150 L200,200 L0,200 Z" fill="#DD2C00" />
        
        <path d="M0,170 Q40,160 100,180 T200,170 L200,200 L0,200 Z" fill="#BF360C" />
    </g>
    
    <text x="100" y="132" font-family="Arial, sans-serif" font-weight="900" font-size="76" text-anchor="middle" fill="#FFFFFF" letter-spacing="1">EA</text>
</svg>
